<svg width="6418" height="1872" viewBox="0 0 6418 1872" fill="none" xmlns="http://www.w3.org/2000/svg">
<path d="M1497.75 609.085C1482.48 580.589 1472.81 549.041 1468.74 514.44C1464.67 478.821 1462.63 429.972 1462.63 367.893C1462.63 308.867 1454.49 257.474 1438.2 213.714C1421.91 169.953 1388.32 148.073 1337.42 148.073C1318.08 148.073 1298.74 154.179 1279.39 166.392C1261.07 177.586 1247.33 191.834 1238.17 209.134C1223.92 236.612 1214.24 266.634 1209.16 299.199C1204.07 330.748 1201.52 367.384 1201.52 409.109C1201.52 435.569 1203.05 462.538 1206.1 490.015C1206.1 498.157 1206.61 511.387 1207.63 529.705C1209.66 547.006 1210.68 562.78 1210.68 577.028C1210.68 638.089 1189.3 668.619 1146.55 668.619C1090.56 668.619 1061.04 639.106 1057.99 580.081C1057.99 538.355 1058.5 515.966 1059.51 512.913V447.273C1059.51 410.636 1057.99 375.017 1054.93 340.416C1051.88 305.814 1048.32 279.863 1044.24 262.563C1035.08 228.979 1022.87 203.028 1007.6 184.71C993.346 166.392 970.442 157.232 938.885 157.232C894.094 157.232 857.956 176.568 830.471 215.24C811.13 245.771 798.405 282.916 792.297 326.677C786.189 382.65 781.609 426.919 778.555 459.485C776.519 491.033 775.501 527.67 775.501 569.395C775.501 598.908 770.411 622.823 760.231 641.142C751.07 659.46 733.255 668.619 706.788 668.619C687.447 668.619 667.087 663.531 645.71 653.354C625.35 642.159 615.171 627.403 615.171 609.085C615.171 589.749 617.207 570.413 621.279 551.077C630.44 493.068 635.021 389.265 635.021 239.665C635.021 215.24 628.913 191.834 616.698 169.445C605.5 146.038 591.758 134.334 575.47 134.334C571.398 134.334 563.763 136.37 552.566 140.441C542.386 144.511 534.751 146.547 529.662 146.547C516.428 146.547 504.212 140.441 493.015 128.228C482.835 116.016 477.745 105.839 477.745 97.6978C477.745 72.2557 489.961 50.8843 514.392 33.5836C539.841 15.2653 566.308 6.10612 593.793 6.10612C631.458 6.10612 663.524 17.8095 689.991 41.2163C716.459 64.623 736.818 97.1889 751.07 138.914C774.483 98.2066 806.04 65.6407 845.741 41.2163C885.441 15.7741 929.723 3.05306 978.585 3.05306C1009.12 3.05306 1033.56 7.1238 1051.88 15.2653C1071.22 22.3891 1087 33.0748 1099.21 47.3223C1111.43 60.5523 1127.21 80.906 1146.55 108.383C1172 75.8176 1204.57 50.3754 1244.28 32.0571C1284.99 13.7387 1326.73 4.57957 1369.49 4.57957C1420.38 4.57957 1466.19 25.4421 1506.91 67.1672C1547.63 107.875 1575.11 155.197 1589.37 209.134C1596.49 236.612 1600.05 289.531 1600.05 367.893L1606.16 456.432C1611.25 509.351 1628.56 541.409 1658.08 552.603C1692.69 562.78 1710 573.466 1710 584.66C1710 609.085 1703.89 626.894 1691.67 638.089C1682.51 644.195 1669.79 650.81 1653.5 657.933C1637.21 665.057 1624.49 668.619 1615.32 668.619C1560.35 668.619 1521.16 648.774 1497.75 609.085Z" fill="#6D6377"/>
<path d="M1789.12 148.073C1780.98 148.073 1773.34 145.02 1766.22 138.914C1760.11 131.79 1757.06 123.649 1757.06 114.49C1757.06 91.0828 1767.24 69.2026 1787.6 48.8489C1793.7 45.7958 1805.92 40.7074 1824.24 33.5836C1842.57 26.4598 1858.85 22.8979 1873.1 22.8979C1911.79 22.8979 1943.34 33.5836 1967.78 54.955C1992.21 75.3087 2004.42 104.822 2004.42 143.494C2004.42 154.688 2002.39 178.604 1998.31 215.24C1994.24 257.983 1992.21 291.058 1992.21 314.465C1992.21 385.703 2001.88 443.202 2021.22 486.962C2028.34 501.21 2039.54 512.404 2054.81 520.546C2070.08 528.687 2083.82 532.758 2096.04 532.758C2125.56 532.758 2149.48 527.67 2167.81 517.493C2186.13 507.316 2205.98 491.033 2227.36 468.644C2248.74 446.255 2262.48 420.813 2268.59 392.318C2275.71 363.822 2280.8 324.642 2283.86 274.775C2285.89 242.209 2287.93 218.293 2289.96 203.028C2295.05 154.179 2297.6 112.454 2297.6 77.8529C2297.6 55.4638 2303.71 37.1455 2315.92 22.8979C2328.14 7.63263 2344.93 0 2366.31 0C2378.53 0 2392.27 4.07073 2407.54 12.2122C2423.83 19.336 2434.51 27.9863 2439.6 38.1632C2445.71 48.34 2448.77 65.1318 2448.77 88.5386C2448.77 100.751 2447.24 112.454 2444.19 123.649C2437.06 149.091 2433.5 179.621 2433.5 215.24L2435.02 294.62C2435.02 366.876 2440.11 420.304 2450.29 454.905C2455.38 471.188 2462.51 487.98 2471.67 505.281C2480.83 521.564 2489.48 535.302 2497.63 546.497C2517.99 568.886 2531.22 584.66 2537.33 593.819C2543.44 601.961 2546.49 610.102 2546.49 618.244C2546.49 630.456 2540.38 642.159 2528.17 653.354C2516.97 663.531 2504.75 668.619 2491.52 668.619C2453.86 668.619 2421.28 655.898 2393.8 630.456C2366.31 605.014 2345.95 571.939 2332.72 531.232C2298.11 570.921 2266.04 602.978 2236.52 627.403C2216.16 641.651 2191.22 652.336 2161.7 659.46C2132.18 665.566 2102.66 668.619 2073.14 668.619C2033.43 668.619 1993.23 652.336 1952.51 619.77C1911.79 587.204 1884.3 549.55 1870.05 506.807C1869.03 504.772 1865.98 496.63 1860.89 482.383C1856.82 468.135 1854.78 446.764 1854.78 418.269C1854.78 380.614 1856.82 333.292 1860.89 276.302C1863.94 239.665 1865.47 206.081 1865.47 175.551C1865.47 166.392 1861.91 158.759 1854.78 152.653C1848.67 146.547 1841.55 143.494 1833.4 143.494C1827.3 143.494 1820.17 144.511 1812.03 146.547C1804.9 147.564 1797.27 148.073 1789.12 148.073Z" fill="#6D6377"/>
<path d="M3263.75 172.498C3271.9 186.745 3278.51 207.608 3283.6 235.085C3288.69 261.545 3291.24 285.461 3291.24 306.832C3291.24 334.31 3288.18 364.84 3282.08 398.424C3275.97 432.007 3270.37 457.958 3265.28 476.277C3195.04 604.505 3091.21 668.619 2953.78 668.619C2902.88 668.619 2850.97 651.827 2798.03 618.244C2745.1 584.66 2708.45 545.988 2688.09 502.228C2660.61 415.724 2646.86 360.261 2646.86 335.836C2646.86 295.129 2655.52 251.877 2672.82 206.081C2691.15 160.285 2714.05 120.596 2741.54 87.0121C2759.86 63.6053 2791.42 43.7605 2836.21 27.4775C2881 10.1768 2921.72 1.52651 2958.36 1.52651C3029.62 1.52651 3089.68 15.2653 3138.54 42.7428C3188.42 69.2026 3230.16 112.454 3263.75 172.498ZM3130.91 418.269C3136 408.092 3138.54 373.999 3138.54 315.991C3138.54 286.478 3132.94 257.474 3121.75 228.979C3111.57 200.484 3096.3 176.06 3075.94 155.706C3073.9 153.67 3068.3 150.617 3059.14 146.547C3049.98 141.458 3037.25 136.879 3020.97 132.808C3005.7 127.719 2987.88 125.175 2967.52 125.175C2910.52 125.175 2868.78 148.073 2842.31 193.869C2815.85 239.665 2802.61 291.567 2802.61 349.575C2802.61 358.734 2805.67 377.561 2811.77 406.056C2817.88 434.552 2822.46 452.87 2825.52 461.011C2833.66 475.259 2849.95 492.051 2874.38 511.387C2899.83 529.705 2927.31 538.864 2956.84 538.864C3002.64 538.864 3038.78 528.179 3065.25 506.807C3092.73 484.418 3114.62 454.905 3130.91 418.269Z" fill="#6D6377"/>
<path d="M3240.29 1189.64C3248.43 1194.73 3264.21 1204.4 3287.62 1218.65C3312.05 1231.88 3328.34 1247.65 3336.49 1265.97C3344.63 1284.29 3348.7 1309.73 3348.7 1342.29C3348.7 1378.93 3338.01 1411.5 3316.64 1439.99C3295.26 1467.47 3267.77 1488.84 3234.18 1504.11C3209.75 1515.3 3179.72 1523.95 3144.09 1530.06C3109.48 1536.16 3081.99 1539.22 3061.63 1539.22C3041.28 1539.22 3014.81 1536.16 2982.23 1530.06C2950.68 1523.95 2928.79 1518.35 2916.57 1513.27C2885.02 1494.95 2857.53 1472.56 2834.12 1446.1C2811.72 1419.64 2800.53 1392.67 2800.53 1365.19C2800.53 1344.84 2807.14 1329.06 2820.38 1317.87C2833.61 1305.66 2850.91 1299.55 2872.29 1299.55C2882.47 1299.55 2893.16 1303.62 2904.36 1311.76C2915.56 1318.89 2923.19 1326.52 2927.26 1334.66C2938.46 1361.12 2957.29 1380.97 2983.76 1394.2C3010.23 1407.43 3037.2 1414.04 3064.69 1414.04C3100.32 1414.04 3133.4 1408.44 3163.94 1397.25C3194.48 1385.04 3209.75 1368.75 3209.75 1348.4C3209.75 1339.24 3207.2 1332.12 3202.11 1327.03C3198.04 1320.92 3191.93 1314.82 3183.79 1308.71C3169.54 1298.53 3148.16 1290.39 3119.66 1284.29C3091.16 1277.16 3072.83 1272.58 3064.69 1270.55C3022.95 1261.39 2982.23 1247.65 2942.53 1229.33C2902.83 1210 2871.27 1187.1 2847.86 1160.64C2824.45 1134.18 2812.74 1100.09 2812.74 1058.36C2812.74 1030.88 2822.92 1002.39 2843.28 972.875C2863.64 942.345 2886.54 920.973 2911.99 908.761C2930.32 901.637 2960.86 894.005 3003.61 885.863C3047.38 877.722 3076.9 873.651 3092.17 873.651C3115.59 873.651 3141.04 876.195 3168.52 881.283C3196.01 885.354 3216.87 892.478 3231.13 902.655C3258.61 918.938 3281.01 936.239 3298.31 954.557C3315.62 971.858 3324.27 991.702 3324.27 1014.09C3324.27 1025.29 3321.72 1037.5 3316.64 1050.73C3311.55 1062.94 3305.44 1070.57 3298.31 1073.63C3283.04 1080.75 3265.23 1084.31 3244.87 1084.31C3235.71 1084.31 3228.07 1081.77 3221.96 1076.68C3216.87 1071.59 3209.75 1063.45 3200.59 1052.25C3189.39 1034.95 3178.7 1024.78 3168.52 1021.72C3156.31 1018.67 3138.49 1015.11 3115.08 1011.04C3091.66 1005.95 3075.89 1003.41 3067.74 1003.41C3044.33 1003.41 3019.9 1010.02 2994.45 1023.25C2970.02 1036.48 2957.8 1051.75 2957.8 1069.05C2957.8 1078.21 2961.36 1085.33 2968.49 1090.42C2976.63 1095.51 2984.78 1100.09 2992.92 1104.16C3002.08 1108.23 3008.19 1110.77 3011.24 1111.79C3032.62 1121.97 3056.04 1130.62 3081.48 1137.74C3107.95 1144.86 3124.24 1149.44 3130.35 1151.48C3185.32 1164.71 3221.96 1177.43 3240.29 1189.64Z" fill="#6D6377"/>
<path d="M4115.71 1537.69C4039.36 1537.69 3987.95 1508.18 3961.49 1449.15C3948.25 1419.64 3939.6 1381.48 3935.53 1334.66C3931.46 1286.83 3929.42 1230.86 3929.42 1166.74V1119.42C3929.42 1046.15 3904.99 1009.51 3856.13 1009.51C3827.62 1009.51 3799.12 1024.27 3770.62 1053.78C3742.11 1082.28 3718.19 1120.44 3698.85 1168.27C3680.53 1215.08 3671.37 1263.93 3671.37 1314.82C3671.37 1348.4 3672.89 1378.93 3675.95 1406.41C3677.98 1441.01 3679 1467.47 3679 1485.79C3679 1520.39 3655.08 1537.69 3607.23 1537.69C3583.82 1537.69 3562.95 1532.6 3544.63 1522.43C3527.32 1512.25 3518.67 1499.02 3518.67 1482.74C3522.74 1430.83 3524.78 1366.72 3524.78 1290.39L3523.25 1088.89C3523.25 1056.33 3520.71 935.73 3515.62 727.104L3511.04 586.664C3511.04 564.275 3521.22 544.939 3541.57 528.656C3561.93 511.355 3584.84 502.705 3610.29 502.705C3632.68 502.705 3648.97 507.793 3659.15 517.97C3669.33 528.147 3674.42 543.921 3674.42 565.292C3674.42 591.752 3673.91 622.791 3672.89 658.41C3671.87 693.012 3670.86 719.472 3669.84 737.79C3666.78 789.692 3665.26 841.594 3665.26 893.496C3665.26 944.38 3664.24 984.579 3662.2 1014.09C3692.74 969.313 3727.35 936.239 3766.04 914.867C3805.74 892.478 3852.05 881.283 3904.99 881.283C3943.67 881.283 3979.3 898.584 4011.88 933.185C4045.47 966.769 4065.83 1005.44 4072.95 1049.2C4074.99 1071.59 4076.01 1104.67 4076.01 1148.43L4074.48 1259.86C4074.48 1277.16 4075.5 1304.13 4077.53 1340.77C4078.55 1358.07 4084.15 1376.39 4094.33 1395.72C4105.53 1415.06 4118.25 1429.31 4132.5 1438.47C4145.74 1446.61 4154.39 1454.75 4158.46 1462.89C4162.53 1471.03 4164.57 1480.19 4164.57 1490.37C4164.57 1500.54 4159.99 1511.23 4150.83 1522.43C4141.67 1532.6 4129.96 1537.69 4115.71 1537.69Z" fill="#6D6377"/>
<path d="M4877.26 1043.1C4885.41 1057.34 4892.02 1078.21 4897.11 1105.68C4902.2 1132.14 4904.75 1156.06 4904.75 1177.43C4904.75 1217.12 4896.1 1273.6 4878.79 1346.87C4808.55 1475.1 4704.72 1539.22 4567.29 1539.22C4516.39 1539.22 4464.48 1522.43 4411.54 1488.84C4358.61 1455.26 4321.96 1416.59 4301.6 1372.83C4274.12 1285.3 4260.38 1229.84 4260.38 1206.43C4260.38 1165.73 4269.03 1122.47 4286.33 1076.68C4304.66 1030.88 4327.56 991.194 4355.05 957.61C4372.35 934.203 4403.4 914.358 4448.19 898.075C4492.98 880.775 4533.7 872.124 4570.35 872.124C4641.6 872.124 4702.17 885.863 4752.05 913.341C4801.93 939.8 4843.67 983.052 4877.26 1043.1ZM4744.42 1288.87C4749.51 1275.64 4752.05 1241.54 4752.05 1186.59C4752.05 1157.08 4746.45 1128.07 4735.26 1099.58C4725.08 1071.08 4709.81 1046.66 4689.45 1026.3C4687.41 1024.27 4681.81 1021.22 4672.65 1017.14C4663.49 1012.06 4650.77 1007.48 4634.48 1003.41C4619.21 998.317 4601.39 995.773 4581.04 995.773C4524.03 995.773 4482.29 1018.67 4455.83 1064.47C4429.36 1110.26 4416.12 1162.16 4416.12 1220.17C4416.12 1230.35 4418.67 1249.69 4423.76 1278.18C4429.87 1306.68 4434.96 1324.49 4439.03 1331.61C4442.08 1338.73 4449.72 1348.91 4461.93 1362.14C4475.17 1374.35 4490.94 1385.55 4509.27 1395.72C4528.61 1404.88 4548.46 1409.46 4568.82 1409.46C4614.63 1409.46 4651.27 1398.78 4678.76 1377.41C4706.25 1355.02 4728.13 1325.5 4744.42 1288.87Z" fill="#6D6377"/>
<path d="M5089.08 1001.88C5079.92 1001.88 5071.27 1002.9 5063.12 1004.93C5054.98 1005.95 5046.83 1006.46 5038.69 1006.46C5027.49 1006.46 5016.8 1001.37 5006.63 991.194C4997.46 981.017 4992.88 971.858 4992.88 963.716C4992.88 937.256 5006.12 916.903 5032.58 902.655C5059.05 887.39 5086.03 879.757 5113.51 879.757C5136.93 879.757 5160.85 887.898 5185.28 904.181C5210.73 919.447 5229.56 939.292 5241.78 963.716C5268.24 932.168 5300.82 909.27 5339.5 895.022C5378.18 880.775 5418.39 873.651 5460.13 873.651C5506.96 873.651 5550.22 888.407 5589.92 917.92C5630.64 947.433 5662.71 985.087 5686.12 1030.88C5709.53 1075.66 5721.24 1120.44 5721.24 1165.22C5721.24 1208.98 5716.66 1248.16 5707.5 1282.76C5698.33 1316.34 5682.05 1350.44 5658.63 1385.04C5632.17 1421.67 5596.54 1451.7 5551.75 1475.1C5507.97 1498.51 5455.55 1510.21 5394.47 1510.21C5378.18 1510.21 5358.33 1506.14 5334.92 1498C5311.51 1488.84 5292.17 1479.17 5276.9 1469C5269.77 1538.2 5266.21 1598.24 5266.21 1649.13C5266.21 1679.66 5267.73 1708.66 5270.79 1736.14C5272.82 1768.71 5273.84 1792.11 5273.84 1806.36C5273.84 1828.75 5266.21 1845.03 5250.94 1855.21C5235.67 1866.4 5218.87 1872 5200.55 1872C5163.9 1872 5139.47 1861.82 5127.25 1841.47C5116.06 1822.13 5110.46 1794.15 5110.46 1757.51C5114.53 1669.99 5119.62 1589.08 5125.73 1514.79C5131.84 1423.2 5134.89 1281.74 5134.89 1090.42C5134.89 1072.1 5131.33 1052.76 5124.2 1032.41C5117.07 1012.06 5105.37 1001.88 5089.08 1001.88ZM5283 1317.87C5288.09 1337.21 5302.34 1353.49 5325.76 1366.72C5350.19 1378.93 5372.08 1385.04 5391.42 1385.04C5449.44 1385.04 5492.7 1369.26 5521.21 1337.72C5542.59 1315.33 5556.33 1293.45 5562.44 1272.07C5569.56 1250.7 5573.12 1216.61 5573.12 1169.8C5573.12 1133.16 5566 1102.63 5551.75 1078.21C5537.5 1052.76 5520.19 1034.45 5499.83 1023.25C5479.47 1011.04 5460.13 1004.93 5441.81 1004.93C5400.07 1004.93 5365.97 1017.65 5339.5 1043.1C5314.05 1067.52 5297.76 1101.1 5290.64 1143.85C5285.55 1177.43 5283 1235.44 5283 1317.87Z" fill="#6D6377"/>
<path d="M6282.45 1230.79C6282.45 1264.58 6268.93 1296.34 6241.89 1326.08C6214.85 1354.46 6185.11 1368.65 6152.66 1368.65C6114.81 1368.65 6080.33 1358.51 6049.24 1338.24C6018.14 1316.61 6002.59 1289.58 6002.59 1257.14C6002.59 1205.78 6012.06 1167.94 6030.98 1143.61C6051.26 1119.28 6081.01 1107.11 6120.21 1107.11C6166.18 1107.11 6204.71 1118.6 6235.81 1141.58C6266.91 1163.21 6282.45 1192.94 6282.45 1230.79Z" fill="#6D6377"/>
<path d="M293.938 348.263C293.938 382.053 280.418 413.816 253.379 443.552C226.339 471.936 196.595 486.128 164.147 486.128C126.292 486.128 91.8159 475.99 60.7202 455.716C29.6245 434.09 14.0766 407.058 14.0766 374.619C14.0766 323.258 23.5405 285.413 42.4684 261.084C62.7482 236.755 92.4919 224.59 131.7 224.59C177.667 224.59 216.199 236.079 247.295 259.057C278.39 280.682 293.938 310.418 293.938 348.263Z" fill="#6D6377"/>
</svg>
